PathFileType	4	(X/Y/Z)	/Users/visionmauri/Downloads/Videos/OAW01-top_Sports2D/OAW01-top_Sports2D_m_person00.trc
DataRate	CameraRate	NumFrames	NumMarkers	Units	OrigDataRate	OrigDataStartFrame	OrigNumFrames
26.0	26.0	7	22	m	26.0	1526	2035
Frame#	Time	Hip			RHip			RKnee			RAnkle			RBigToe			RSmallToe			RHeel			LHip			LKnee			LAnkle			LBigToe			LSmallToe			LHeel			Neck			Head			Nose			RShoulder			RElbow			RWrist			LShoulder			LElbow			LWrist			
		X1	Y1	Z1	X2	Y2	Z2	X3	Y3	Z3	X4	Y4	Z4	X5	Y5	Z5	X6	Y6	Z6	X7	Y7	Z7	X8	Y8	Z8	X9	Y9	Z9	X10	Y10	Z10	X11	Y11	Z11	X12	Y12	Z12	X13	Y13	Z13	X14	Y14	Z14	X15	Y15	Z15	X16	Y16	Z16	X17	Y17	Z17	X18	Y18	Z18	X19	Y19	Z19	X20	Y20	Z20	X21	Y21	Z21	X22	Y22	Z22
1526	58.72116330080932	1.6086979028364798	0.9078405850176727	0.0301	1.647218977999528	0.8975504252493033	0.0301	1.6149419878331364	0.7369110476229302	0.129	1.5935742687513528	0.6095885415371446	0.023	1.5791537298272056	0.5322934297953626	0.2179	1.609549566824014	0.5327535028919574	0.1804	1.5834182816912246	0.5793938116049177	-0.0119	1.5700746566907375	0.9073120366281175	0.0301	1.5502215063637999	0.7312200591764145	0.129	1.5351761005228362	0.5866140669165549	0.023	1.545127672384514	0.5452613244831932	0.2179	1.5147749316788004	0.5464934275587716	0.1804	1.5353286368860772	0.5571258781636219	-0.0119	1.645984282313463	1.1378311805813084	0.0008	1.6634225715097004	1.2186228490746946	0.0655	1.6585656938568116	1.1593916024011799	0.1076	1.713614110489877	1.0997059948964703	-0.01275	1.7096092384435042	0.9745805337820821	0.0702	1.703029244684791	0.8692254698472811	0.1076	1.570383239818194	1.1216160123994923	-0.01275	1.5285001094986332	1.0045069073684072	0.0702	1.505830122980805	0.9067719348913436	0.1076
1527	58.75964374858181	1.609411001329632	0.9116554645303254	0.0301	1.6481712447835497	0.9009560593286494	0.0301	1.6161030472484619	0.7372634461851073	0.129	1.5934893583518694	0.600318754072499	0.023	1.582381348696608	0.5438075308802576	0.2179	1.6105822802929786	0.5402152919543672	0.1804	1.5845626849843484	0.57248305916257	-0.0119	1.5697698042393804	0.9118013081924121	0.0301	1.550961673353697	0.7335508426674232	0.129	1.5344107531343567	0.5868776785549245	0.023	1.5452129273850883	0.5492310862551422	0.2179	1.5158024065278228	0.5477468962892661	0.1804	1.5342741311025538	0.5569872785318892	-0.0119	1.6469390569411522	1.1427784252117352	0.0008	1.665914828212822	1.2360319362696337	0.0655	1.6603539983886453	1.1662780966139281	0.1076	1.7138198250297658	1.1027461158140979	-0.01275	1.709119271496503	0.9768605803795251	0.0702	1.7022749613864343	0.8703775581101882	0.1076	1.572564064651525	1.126367205362059	-0.01275	1.5303420747863192	1.0098470791610346	0.0702	1.5074089702189093	0.9158871434424394	0.1076
1528	58.798124196354294	1.6103677220613721	0.9154219283081887	0.0301	1.6496027026261477	0.9033011517822902	0.0301	1.6176799716163293	0.7370008486769356	0.129	1.5949048171276108	0.5946898001431727	0.023	1.584785509575176	0.552032979602609	0.2179	1.611869864459111	0.5462597041304178	0.1804	1.586493508871519	0.5691341776486358	-0.0119	1.5702264187437893	0.914953380088851	0.0301	1.551889526108572	0.735960138872864	0.129	1.5336018979467665	0.5878968704643918	0.023	1.5448424983851496	0.5523078646806403	0.2179	1.5158697152430742	0.5504193357545204	0.1804	1.533664829636166	0.5580498268973466	-0.0119	1.6478030591306276	1.1462354433784931	0.0008	1.669290686677098	1.2499799794334516	0.0655	1.660664248192364	1.173263203362121	0.1076	1.7136594138177559	1.1049012082963665	-0.01275	1.7079579928962865	0.9784883983887134	0.0702	1.701945507006391	0.8705993221718884	0.1076	1.5742238611828185	1.1286172024626815	-0.01275	1.5321971918847874	1.013343432586542	0.0702	1.5094590830147039	0.9220553709818188	0.1076
1529	58.83660464412677	1.6108014373612036	0.9165154141343044	0.0301	1.649962820511886	0.9034220974950036	0.0301	1.6193643189695615	0.7364272114908547	0.129	1.5971577467591835	0.5951570694460302	0.023	1.5882464670595353	0.5573911938174021	0.2179	1.6142662149405718	0.5519346685042125	0.1804	1.5885341591937112	0.570980669586401	-0.0119	1.5712235667193726	0.914945234187614	0.0301	1.5522391865200862	0.7368483111025217	0.129	1.5338356850393235	0.5895118006391955	0.023	1.5441605547221509	0.5530772993584105	0.2179	1.5159855067952188	0.5520289900344096	0.1804	1.533779093379423	0.5600724225693714	-0.0119	1.6494999450296732	1.14725449331325	0.0008	1.670884266323672	1.2496659830130716	0.0655	1.6626456572447097	1.177391355328869	0.1076	1.713364120286253	1.1044441873170097	-0.01275	1.707189349300398	0.9784217071891342	0.0702	1.701936598221879	0.8703098279661801	0.1076	1.5751972437893615	1.1278615651097073	-0.01275	1.5327723676662004	1.0139934579764196	0.0702	1.5110958904611724	0.9261434769954836	0.1076
1530	58.87508509189926	1.6114523445828854	0.9158286572008552	0.0301	1.6500169841773584	0.9016974170455107	0.0301	1.62120570495304	0.7366408061094722	0.129	1.5998137042847407	0.5988459532623281	0.023	1.5925396908222342	0.5637768751758679	0.2179	1.6175601856802277	0.5589858324901812	0.1804	1.5911031606854367	0.575288614040949	-0.0119	1.5722827762511136	0.9132139215642455	0.0301	1.5529219185272	0.736526930273924	0.129	1.53448721742607	0.5898573492868388	0.023	1.5443829778538896	0.5534446036974081	0.2179	1.5162455272632427	0.5523626704476363	0.1804	1.5338794268204563	0.5614065980735283	-0.0119	1.6519597613910113	1.1456430126403174	0.0008	1.6718939533288228	1.2404220459563846	0.0655	1.6667747224196796	1.1757076120019048	0.1076	1.7135986287477332	1.102198985639193	-0.01275	1.70801029877424	0.9770985380099056	0.0702	1.7025683465514174	0.8695608933240033	0.1076	1.5765630094540084	1.126388526298954	-0.01275	1.533373870608563	1.0130927705476773	0.0702	1.5130506475350243	0.9286896107919025	0.1076
1531	58.913565539671744	1.6133061724530804	0.9152742641781235	0.0301	1.6512789804175343	0.8999489696974975	0.0301	1.6231072894540737	0.738238769221546	0.129	1.602385261541705	0.6026990866663817	0.023	1.594734336336116	0.5708924144285893	0.2179	1.6201326393949258	0.5662139400278554	0.1804	1.5933443306014923	0.5790572849256603	-0.0119	1.573776922936586	0.9123100756017174	0.0301	1.5551437390474776	0.7368838337766219	0.129	1.5345357828216035	0.5888360963580498	0.023	1.5460843327572034	0.5541220725709369	0.2179	1.5164279474126308	0.5527092814804233	0.1804	1.5335742052534282	0.5608210837935133	-0.0119	1.6546346151842248	1.1415064022023025	0.0008	1.6751028275610793	1.2312257943441132	0.0655	1.671898847920078	1.1686075220599612	0.1076	1.7152224637233253	1.10019036163439	-0.01275	1.710043292327948	0.9757641277709989	0.0702	1.70423847719055	0.8672992661226827	0.1076	1.5790124401672452	1.1256213906190888	-0.01275	1.5356744085105432	1.0122141473333697	0.0702	1.5165808482231542	0.9297448486222175	0.1076
1532	58.95204598744422	1.6160045440696928	0.91418714570498	0.0301	1.6534651026551836	0.8990713655239825	0.0301	1.624624008963679	0.7396243723094077	0.129	1.6035107012766476	0.6051157217685551	0.023	1.5933678990922486	0.5733318751889879	0.2179	1.620455750808731	0.5688349079088719	0.1804	1.5940799155789933	0.5810944081630995	-0.0119	1.5760070933582935	0.9120290414639795	0.0301	1.5579579450624064	0.7383900176883514	0.129	1.5347079655871168	0.5892208045536373	0.023	1.5475091370188547	0.5548090305004606	0.2179	1.5166039298072829	0.5538700108296227	0.1804	1.5336186292738736	0.5598465008955267	-0.0119	1.657465649607469	1.1375264834204701	0.0008	1.6798669840334037	1.2242092956485098	0.0655	1.676155050141048	1.1620585361461777	0.1076	1.7183382303337125	1.0987402115014289	-0.01275	1.7118929751375842	0.974593114357068	0.0702	1.7063117535372154	0.8641921665232726	0.1076	1.5821411745234477	1.1252094533915287	-0.01275	1.538943768130293	1.0117143985469537	0.0702	1.5203907521215128	0.9296290272387852	0.1076
